<?xml version="1.0" encoding="UTF-8" standalone="no"?>
<!DOCTYPE svg PUBLIC "-//W3C//DTD SVG 20010904//EN"
              "http://www.w3.org/TR/2001/REC-SVG-20010904/DTD/svg10.dtd">

<svg xmlns="http://www.w3.org/2000/svg"
     width="5.55556in" height="5.55556in"
     viewBox="0 0 500 500">
  <path id="cibus"
        fill="#6969af" 
        d="M 326.00,330.00
           C 334.13,330.18 344.87,333.59 353.00,335.63
             353.00,335.63 394.00,345.63 394.00,345.63
             394.00,345.63 410.00,349.38 410.00,349.38
             411.85,349.88 414.55,350.40 415.33,352.43
             416.09,354.39 413.51,362.59 412.85,365.00
             409.53,377.12 404.86,388.78 399.25,400.00
             392.40,413.70 385.14,424.59 374.83,436.00
             350.50,462.94 315.36,475.25 280.00,478.08
             280.00,478.08 268.00,479.00 268.00,479.00
             268.00,479.00 250.00,479.00 250.00,479.00
             236.24,478.84 215.22,475.26 202.00,471.28
             190.21,467.73 176.37,461.91 166.00,455.31
             117.98,424.71 96.34,366.31 89.85,312.00
             89.85,312.00 87.00,280.00 87.00,280.00
             87.00,280.00 86.00,265.00 86.00,265.00
             86.00,265.00 86.00,237.00 86.00,237.00
             86.00,237.00 87.00,222.00 87.00,222.00
             87.00,222.00 89.72,191.00 89.72,191.00
             96.22,141.17 113.35,87.92 154.00,55.45
             176.95,37.12 212.48,24.05 242.00,24.00
             242.00,24.00 279.00,24.00 279.00,24.00
             303.50,24.29 333.77,34.51 354.00,48.09
             381.61,66.62 399.67,97.01 410.00,128.00
             412.38,135.14 414.95,143.56 416.00,151.00
             416.00,151.00 388.00,157.88 388.00,157.88
             388.00,157.88 354.00,166.21 354.00,166.21
             354.00,166.21 326.00,172.00 326.00,172.00
             323.51,154.34 311.35,126.06 298.00,114.18
             276.82,95.35 236.48,96.79 216.01,116.09
             197.03,133.99 191.54,164.10 189.04,189.00
             189.04,189.00 189.04,199.00 189.04,199.00
             189.04,199.00 188.00,211.00 188.00,211.00
             188.00,211.00 188.00,291.00 188.00,291.00
             188.00,291.00 189.04,303.00 189.04,303.00
             189.04,303.00 189.04,313.00 189.04,313.00
             191.25,334.83 195.18,357.49 207.67,376.00
             212.75,383.52 218.97,389.56 227.00,393.88
             246.10,404.15 277.42,404.02 295.00,390.47
             310.34,378.65 323.31,349.03 326.00,330.00 Z" />
</svg>
